<svg xmlns="http://www.w3.org/2000/svg" viewBox="0 0 85.02 85.02"><defs><style>.a{fill:#294088}.b{fill:#fff}</style></defs><title>logo</title><path class="a" d="M85.02 27.48v57.54H0V0h85.02v27.48"/><path class="b" d="M36.65 16.31H34.5l-.43 1.63h1.57l1-1.63M33 29.91a2.09 2.09 0 0 0-1.7.62l.88.88a.9.9 0 0 1 .82-.31c.49 0 .7.16.7.58v.12h-.94c-1.11 0-1.59.64-1.59 1.34a1.24 1.24 0 0 0 0 .27h-.05a.26.26 0 0 1-.29-.29v-4.65h-1.41v4.76a1.33 1.33 0 0 0 1.44 1.36h.75v-.32a1.57 1.57 0 0 0 1.06.37 1.28 1.28 0 0 0 1-.42v.37h1.38v-3c.03-1.13-.68-1.68-2.05-1.68zm.63 2.95a.59.59 0 0 1-.14.46.68.68 0 0 1-.56.17c-.31 0-.47-.18-.47-.38s.17-.37.45-.37h.72zm-7.35-2.95a2 2 0 0 0-2 1.56v-3h-1.36v1.83a1.36 1.36 0 0 0-1-.39 1.61 1.61 0 0 0-1.12.42 2.77 2.77 0 0 0-.44 2 2.73 2.73 0 0 0 .44 1.94 1.6 1.6 0 0 0 1.13.43 1.4 1.4 0 0 0 1.07-.48v.37h1.37v-1.44a1.93 1.93 0 0 0 2.12 1.5 2.27 2.27 0 0 0 1.81-.74l-.85-.84a1.16 1.16 0 0 1-1 .39.75.75 0 0 1-.82-.72h2.78v-.63a2 2 0 0 0-2.09-2.2zm-4 3.46c-.53 0-.59-.42-.59-1.09s.06-1.09.59-1.09.59.42.59 1.09-.01 1.09-.54 1.09zm3.3-1.57a.81.81 0 0 1 .08-.36.61.61 0 0 1 .61-.37.61.61 0 0 1 .61.37.81.81 0 0 1 .08.36zM66 16.23h-2.6v2H66zm15.83 11.25v5.14h-3.49v-5.14h-1.47v-2.06H76a.47.47 0 0 1-.52-.53v-8.56h-2.6v5.37c-.18-1.82-1.48-2.7-3.77-2.7A3.77 3.77 0 0 0 66 20.13l1.61 1.61a1.63 1.63 0 0 1 1.39-.57c.9 0 1.28.29 1.28 1.06v.23h-1.74A2.8 2.8 0 0 0 66 23.64v-4.22h-2.26a2.58 2.58 0 0 0-1.56-.42 2.94 2.94 0 0 0-2 .79v-.7h-2.55v2.78a3.13 3.13 0 0 0-.84-1.78 4 4 0 0 0-5.47 0 3.18 3.18 0 0 0-.8 1.53 3 3 0 0 0-.9-1.89 2.93 2.93 0 0 0-2-.73 3.33 3.33 0 0 0-2.41.9 2.58 2.58 0 0 0-2.11-.9 2.89 2.89 0 0 0-2 .79v-.7h-2.52v2.63A3.57 3.57 0 0 0 34.93 19c-2.12 0-3.64 1.4-3.8 3.92v-6.59H28.4l-2.53 5-2.53-5h-2.73V27.6h2.77v-5.4L25 25h1.78l1.6-2.79v5.4h2.77v-3.85c.16 3.3 2.23 3.94 4 3.94a4.13 4.13 0 0 0 3.3-1.35l-1.53-1.55a2.1 2.1 0 0 1-1.75.71 1.37 1.37 0 0 1-1.51-1.33h4.92v3.42h1.27a4 4 0 0 0-3.11 4 3.7 3.7 0 0 0 .92 2.68 4.51 4.51 0 0 0 2.68 1.18l1.61.23a1.42 1.42 0 0 1 .88.35 1.12 1.12 0 0 1 .27.79c0 .77-.62 1.2-1.92 1.2a4.34 4.34 0 0 1-3-.94l-2.1 2.1A6.51 6.51 0 0 0 41.17 41a5.12 5.12 0 0 0 4.7-2.33v2.21h3.28v-5.34h3.49v5.29h3.29v-3a4.24 4.24 0 0 0 1 1.67 5.39 5.39 0 0 0 7.46 0 2.67 2.67 0 0 0 .28-.32l-.61 1.7h3.44l.65-2h4.11l.62 2h5.46v-5.34h3.49v5.29H85V27.48zm-48.17-5a1.5 1.5 0 0 1 .14-.67 1.29 1.29 0 0 1 2.25 0 1.5 1.5 0 0 1 .14.67zm7.52 0a1.05 1.05 0 1 1 2.09 0v5a9.49 9.49 0 0 0-1.65-.14h-.44zm4.69 12.06a3 3 0 0 0-.54-.74 4.52 4.52 0 0 0-2.63-1.11l-1.61-.22a1.52 1.52 0 0 1-.92-.4.89.89 0 0 1-.26-.62c0-.58.47-1.23 1.61-1.23a3.3 3.3 0 0 1 2.53.78l1.82-1.82zM48 27.48h-2.13v1.26a5.23 5.23 0 0 0-2.19-1.14h2.19v-5.1a1.05 1.05 0 1 1 2.09 0zm22.37-.57v.57h-.78a2.73 2.73 0 0 0 .74-.57zm-17.69.57v5.14h-3.53v-5h1.41v-2.41a3.1 3.1 0 0 0 .76 1.4 3.44 3.44 0 0 0 1.36.87zm2.11-2.36a1 1 0 0 1-.69.23 1 1 0 0 1-.7-.23 2.59 2.59 0 0 1-.4-1.78c0-.84.05-1.44.38-1.77a.93.93 0 0 1 .7-.24.92.92 0 0 1 .69.24c.33.33.38.93.38 1.77a2.59 2.59 0 0 1-.4 1.78zm1.18 5.41v-3.05h-.5a3.44 3.44 0 0 0 1.36-.87 3.13 3.13 0 0 0 .84-1.78v2.77H59a4.85 4.85 0 0 0-2 1.27 4.14 4.14 0 0 0-1.07 1.66zm6 6.89a1.73 1.73 0 0 1-2.62 0c-.3-.39-.49-.83-.49-3.26s.19-2.89.49-3.29a1.77 1.77 0 0 1 2.62 0c.3.4.49.85.49 3.29S62.28 37 62 37.42zm3.72-1.07c.06-.7 0-1.44 0-2.19 0-2 .06-3.89-1.35-5.29a4.87 4.87 0 0 0-3.73-1.5h-.44V22.5a1 1 0 0 1 1-1.17 1.19 1.19 0 0 1 .94.45l1.19-1.21v7H66v-1.19a2.36 2.36 0 0 0 .4.54 2.81 2.81 0 0 0 2 .76h.43zm2.43-11.49c0-.39.32-.68.82-.68h1.32v.22a1.1 1.1 0 0 1-.25.86 1.26 1.26 0 0 1-1 .32c-.59 0-.88-.34-.88-.72zm.94 11.25l1.2-3.57 1.13 3.57zm6 1.27L71.5 27.6h1.37v-2.24a2.38 2.38 0 0 0 2.19 2.21zm-34.64 8.84V44.3l-.57.99h-.63l-.57-.99v1.92h-.99v-4.01h.97l.9 1.77.91-1.77h.97v4.01h-.99m3.25 0V46a1 1 0 0 1-.71.29.94.94 0 0 1-.68-.26 1.11 1.11 0 0 1-.3-.87v-1.97h.92V45a.37.37 0 0 0 .37.41.36.36 0 0 0 .37-.41v-1.81h.93v3h-.9m2.47.07a1.68 1.68 0 0 1-1.32-.44l.6-.6a1 1 0 0 0 .74.25c.13 0 .39 0 .39-.2s0-.17-.22-.19h-.47c-.52 0-.88-.29-.88-.88a1.08 1.08 0 0 1 1.21-1 1.54 1.54 0 0 1 1.19.37l-.56.57a.94.94 0 0 0-.65-.18c-.22 0-.3.1-.3.17s0 .15.2.17l.47.05a.88.88 0 0 1 .91.92c0 .72-.61 1-1.31 1M48.57 45a.49.49 0 0 0 .53.47.76.76 0 0 0 .63-.25l.55.55a1.47 1.47 0 0 1-1.18.48c-.67 0-1.44-.25-1.44-1.55A1.36 1.36 0 0 1 49 43.16a1.32 1.32 0 0 1 1.36 1.43V45h-1.79m.85-.86a.46.46 0 0 0-.8 0 .55.55 0 0 0 0 .24h.9a.55.55 0 0 0-.1-.23zm-.15-1.36h-.55l.16-.6h.79zM51.56 45a.5.5 0 0 0 .54.47.76.76 0 0 0 .63-.26l.55.56a1.48 1.48 0 0 1-1.18.48c-.67 0-1.44-.25-1.44-1.55 0-1 .56-1.55 1.35-1.55a1.33 1.33 0 0 1 1.37 1.43V45h-1.82m.86-.86a.42.42 0 0 0-.41-.23.4.4 0 0 0-.4.23.74.74 0 0 0 0 .24h.91a.74.74 0 0 0-.1-.23zm1.34 3.09v-1.52h.98v.79l-.98.73m-14.71 3.58a1.47 1.47 0 0 1-1.11-.46 2 2 0 0 1-.41-1.58 2 2 0 0 1 .41-1.59 1.5 1.5 0 0 1 1.11-.45A1.45 1.45 0 0 1 40.58 48h-1a.49.49 0 0 0-.51-.42.47.47 0 0 0-.39.17c-.09.11-.15.25-.15 1s.06.87.15 1a.52.52 0 0 0 .9-.26h1a1.46 1.46 0 0 1-1.53 1.31m2.6-1.24a.5.5 0 0 0 .54.47.76.76 0 0 0 .63-.26l.55.56a1.48 1.48 0 0 1-1.18.48c-.67 0-1.44-.25-1.44-1.55 0-1 .56-1.55 1.35-1.55a1.33 1.33 0 0 1 1.37 1.43v.42h-1.82m.86-.86a.43.43 0 0 0-.41-.23.43.43 0 0 0-.4.23.74.74 0 0 0-.05.24h.91a.55.55 0 0 0-.05-.24zm3.04 2.07V49a.38.38 0 1 0-.75 0v1.81h-.92v-3h.9V48a1 1 0 0 1 .7-.28.94.94 0 0 1 .69.26 1.09 1.09 0 0 1 .3.86v1.94h-.92m2.45-.01a.87.87 0 0 1-.94-.89v-1.31h-.27v-.71h.27V47H48v.87h.48v.71H48v1.24a.17.17 0 0 0 .18.19h.3v.77H48m2.5-2.08a.42.42 0 0 0-.33-.16.37.37 0 0 0-.37.42v1.81h-.93v-3h.91V48a1.06 1.06 0 0 1 .71-.28.89.89 0 0 1 .71.28l-.7.71m1.5.85a.49.49 0 0 0 .53.47.73.73 0 0 0 .63-.26l.55.56a1.47 1.47 0 0 1-1.18.48c-.67 0-1.44-.25-1.44-1.55a1.36 1.36 0 0 1 1.36-1.55 1.33 1.33 0 0 1 1.37 1.43v.42H52m.85-.86a.46.46 0 0 0-.8 0 .55.55 0 0 0 0 .24h.9a.55.55 0 0 0-.1-.24zm-13.63 6.62v-.24a.93.93 0 0 1-.7.28 1 1 0 0 1-.74-.28 1.8 1.8 0 0 1-.28-1.27 1.78 1.78 0 0 1 .28-1.27 1 1 0 0 1 .73-.28.89.89 0 0 1 .68.25v-1.2h.92v4h-.89m-.41-2.23c-.35 0-.39.28-.39.72s0 .71.39.71.38-.27.38-.71-.04-.71-.38-.71zm2.62 1.03a.48.48 0 0 0 .53.47.76.76 0 0 0 .63-.25l.55.55a1.47 1.47 0 0 1-1.18.48c-.67 0-1.44-.25-1.44-1.55a1.36 1.36 0 0 1 1.36-1.55 1.32 1.32 0 0 1 1.36 1.44v.41h-1.81m.85-.85a.45.45 0 0 0-.8 0 .48.48 0 0 0 0 .23h.9a.48.48 0 0 0-.1-.23zm4.2 2.06v-.24a.9.9 0 0 1-.7.28 1 1 0 0 1-.73-.28 1.81 1.81 0 0 1-.29-1.27 1.78 1.78 0 0 1 .29-1.27 1 1 0 0 1 .73-.28.85.85 0 0 1 .67.25v-1.2h.93v4h-.9m-.41-2.23c-.34 0-.38.28-.38.72s0 .71.38.71.38-.27.38-.71-.03-.71-.38-.71zM50.1 55a1.3 1.3 0 0 1-1 .39 1.28 1.28 0 0 1-1-.39 2.2 2.2 0 0 1 0-2.32 1.28 1.28 0 0 1 1-.39 1.3 1.3 0 0 1 1 .39 2.2 2.2 0 0 1 0 2.32m-.73-1.79a.3.3 0 0 0-.25-.09.3.3 0 0 0-.24.09 1.49 1.49 0 0 0 0 1.26.33.33 0 0 0 .24.08.34.34 0 0 0 .25-.08 1.49 1.49 0 0 0 0-1.26zm2.73 2.15c-.53 0-1.37-.23-1.37-1.55s.84-1.55 1.37-1.55a1.32 1.32 0 0 1 1 .39l-.62.62a.49.49 0 0 0-.37-.18.37.37 0 0 0-.29.12.85.85 0 0 0-.15.6.84.84 0 0 0 .15.59.37.37 0 0 0 .29.12.49.49 0 0 0 .37-.18l.62.63a1.32 1.32 0 0 1-1 .39m2.95-.04v-.24a1 1 0 0 1-.7.28.94.94 0 0 1-.68-.26 1.09 1.09 0 0 1-.31-.87v-1.94h.92v1.82a.38.38 0 1 0 .75 0v-1.82H56v3h-.91m4.74.03v-1.81a.37.37 0 0 0-.37-.42.37.37 0 0 0-.37.42v1.81h-.93v-1.81a.37.37 0 0 0-.37-.42.37.37 0 0 0-.37.42v1.81h-.92v-3h.9v.25a1 1 0 0 1 .7-.28.91.91 0 0 1 .74.32 1.2 1.2 0 0 1 .86-.32 1 1 0 0 1 .73.26 1.14 1.14 0 0 1 .33.87v1.93h-.93m2.22-1.24a.48.48 0 0 0 .53.47.78.78 0 0 0 .63-.25l.55.55a1.47 1.47 0 0 1-1.18.48c-.67 0-1.44-.25-1.44-1.55a1.36 1.36 0 0 1 1.36-1.55 1.32 1.32 0 0 1 1.36 1.44v.41h-1.81m.85-.85a.41.41 0 0 0-.4-.24.4.4 0 0 0-.4.24.48.48 0 0 0-.05.23H63a.48.48 0 0 0-.1-.23zm3.04 2.06v-1.81a.38.38 0 1 0-.75 0v1.81h-.92v-3h.9v.25a1 1 0 0 1 .71-.28.93.93 0 0 1 .68.26 1.11 1.11 0 0 1 .3.87v1.93h-.92m2.45-.03a.87.87 0 0 1-1-.89v-1.31h-.27v-.71h.27v-.87h.93v.87h.48v.71h-.48v1.24a.17.17 0 0 0 .18.19h.3v.77h-.46m2.4 0v-.24a.87.87 0 0 1-.68.27 1 1 0 0 1-.73-.27 1 1 0 0 1-.26-.71c0-.46.31-.88 1-.88h.61v-.08c0-.27-.13-.37-.45-.37a.57.57 0 0 0-.49.2l-.57-.58a1.33 1.33 0 0 1 1.1-.4c.87 0 1.34.36 1.34 1.1v2h-.9m0-1.21h-.46c-.18 0-.3.1-.3.24s.1.25.31.25.26 0 .36-.11a.37.37 0 0 0 .09-.3zm2.43 1.17a.87.87 0 0 1-.94-.89v-1.31h-.28v-.71h.28v-.87h.92v.87h.48v.71h-.48v1.24a.17.17 0 0 0 .19.19h.29v.77h-.46m1.8-3.32H74v-.7h.92zm0 3.34H74v-2.93h.92zm2.72-.34a1.28 1.28 0 0 1-1 .39 1.3 1.3 0 0 1-1-.39 2.2 2.2 0 0 1 0-2.32 1.3 1.3 0 0 1 1-.39 1.28 1.28 0 0 1 1 .39 2.15 2.15 0 0 1 0 2.32m-.72-1.79a.33.33 0 0 0-.25-.09.32.32 0 0 0-.25.09 1.49 1.49 0 0 0 0 1.26.36.36 0 0 0 .25.08.37.37 0 0 0 .25-.08 1.59 1.59 0 0 0 0-1.26zm3.16 2.11v-1.81a.37.37 0 0 0-.37-.42.37.37 0 0 0-.37.42v1.81h-.93v-3h.9v.25a1 1 0 0 1 .71-.28.9.9 0 0 1 .68.26 1.11 1.11 0 0 1 .3.87v1.93h-.92"/><path class="b" d="M69.38 26.7h1.28v1.56h-1.28z"/></svg>